ISO-10303-21;
HEADER;
FILE_DESCRIPTION(('CATIA V5 STEP Exchange'),'2;1');

FILE_NAME('F:\\Mechatronsparks\\grabcad\\23_Pipes_T\\T_pipe_2_inch.stp','2020-05-18T14:42:44+00:00',('none'),('none'),'CATIA Version 5 Release 20 GA (IN-10)','CATIA V5 STEP AP203','none');

FILE_SCHEMA(('CONFIG_CONTROL_DESIGN'));

ENDSEC;
/* file written by CATIA V5R20 */
DATA;
#5=PRODUCT('Part1','','',(#2)) ;
#1=APPLICATION_CONTEXT('configuration controlled 3D design of mechanical parts and assemblies') ;
#14=PRODUCT_DEFINITION('',' ',#6,#3) ;
#16=SECURITY_CLASSIFICATION(' ',' ',#15) ;
#15=SECURITY_CLASSIFICATION_LEVEL('unclassified') ;
#47=CARTESIAN_POINT(' ',(0.,0.,0.)) ;
#52=CARTESIAN_POINT('Axis2P3D Location',(0.,0.,34.9250000001)) ;
#57=CARTESIAN_POINT('Axis2P3D Location',(0.,0.,69.8500000003)) ;
#61=CARTESIAN_POINT('Vertex',(-34.9250000001,4.27693769074E-015,69.8500000003)) ;
#63=CARTESIAN_POINT('Vertex',(34.9250000001,0.,69.8500000003)) ;
#66=CARTESIAN_POINT('Line Origine',(34.9250000001,0.,34.9250000001)) ;
#70=CARTESIAN_POINT('Vertex',(34.9250000001,-4.30766533555E-014,4.27693769074E-015)) ;
#74=CARTESIAN_POINT('Control Point',(-34.9250000001,4.21884749358E-015,1.11022302463E-016)) ;
#75=CARTESIAN_POINT('Control Point',(-34.9250000001,0.417719795479,0.417719795479)) ;
#76=CARTESIAN_POINT('Control Point',(-34.9187548381,0.835754454552,0.835121519899)) ;
#77=CARTESIAN_POINT('Control Point',(-34.9072667216,1.16789628932,1.16710555347)) ;
#78=CARTESIAN_POINT('Control Point',(-34.8843174165,1.74627338074,1.74571025153)) ;
#79=CARTESIAN_POINT('Control Point',(-34.8493816836,2.32420708174,2.32416130737)) ;
#80=CARTESIAN_POINT('Control Point',(-34.8276312023,2.65599170326,2.65599169874)) ;
#81=CARTESIAN_POINT('Control Point',(-34.7325914997,3.77026324689,3.77026325446)) ;
#82=CARTESIAN_POINT('Control Point',(-34.5927339302,4.88228448165,4.88228446899)) ;
#83=CARTESIAN_POINT('Control Point',(-34.4876040273,5.57699012712,5.57699011402)) ;
#84=CARTESIAN_POINT('Control Point',(-33.7954666665,9.48332732703,9.48332738779)) ;
#85=CARTESIAN_POINT('Control Point',(-32.5376653158,13.3321333358,13.3321330542)) ;
#86=CARTESIAN_POINT('Control Point',(-31.1105660228,16.4238079973,16.423807559)) ;
#87=CARTESIAN_POINT('Control Point',(-27.8524145155,21.6814444218,21.6814447555)) ;
#88=CARTESIAN_POINT('Control Point',(-23.1830227754,26.3577880695,26.3577878154)) ;
#89=CARTESIAN_POINT('Control Point',(-20.881646741,28.241313546,28.2413131966)) ;
#90=CARTESIAN_POINT('Control Point',(-16.3999014472,31.1498483586,31.1498486133)) ;
#91=CARTESIAN_POINT('Control Point',(-11.1135802666,33.2414726222,33.2414724364)) ;
#92=CARTESIAN_POINT('Control Point',(-8.75026952912,33.9496711175,33.949671044)) ;
#93=CARTESIAN_POINT('Control Point',(-4.38461380253,34.8316503544,34.8316504111)) ;
#94=CARTESIAN_POINT('Control Point',(0.134355264498,35.0082369481,35.0082369044)) ;
#95=CARTESIAN_POINT('Control Point',(2.10635598742,34.9444872482,34.944487314)) ;
#96=CARTESIAN_POINT('Control Point',(6.6891687867,34.4698077362,34.4698076473)) ;
#97=CARTESIAN_POINT('Control Point',(11.026689167,33.287225526,33.287225646)) ;
#98=CARTESIAN_POINT('Control Point',(13.3875359179,32.3978288668,32.3978290665)) ;
#99=CARTESIAN_POINT('Control Point',(19.2114602431,29.6050173044,29.6050169759)) ;
#100=CARTESIAN_POINT('Control Point',(23.9092527636,25.8493974131,25.8493979532)) ;
#101=CARTESIAN_POINT('Control Point',(26.3828811188,23.2696429128,23.2696432461)) ;
#102=CARTESIAN_POINT('Control Point',(30.8614999412,17.3224080431,17.3224076506)) ;
#103=CARTESIAN_POINT('Control Point',(33.5131104911,10.8383817761,10.8383822382)) ;
#104=CARTESIAN_POINT('Control Point',(34.4541997105,7.25508837383,7.25237729604)) ;
#105=CARTESIAN_POINT('Control Point',(34.9250000001,3.6268664287,3.6268664287)) ;
#106=CARTESIAN_POINT('Control Point',(34.9250000001,0.,0.)) ;
#107=CARTESIAN_POINT('Vertex',(-34.9250000001,-1.37667655054E-014,0.)) ;
#110=CARTESIAN_POINT('Line Origine',(-34.9250000001,4.27693769074E-015,34.9250000001)) ;
#122=CARTESIAN_POINT('Axis2P3D Location',(0.,0.,0.)) ;
#127=CARTESIAN_POINT('Line Origine',(34.9250000001,0.,4.27693769074E-015)) ;
#131=CARTESIAN_POINT('Vertex',(34.9250000001,69.8500000003,4.27693769074E-015)) ;
#134=CARTESIAN_POINT('Axis2P3D Location',(0.,69.8500000003,0.)) ;
#138=CARTESIAN_POINT('Vertex',(-34.9250000001,69.8500000003,0.)) ;
#141=CARTESIAN_POINT('Line Origine',(-34.9250000001,0.,0.)) ;
#153=CARTESIAN_POINT('Line Origine',(34.9250000001,0.,4.27693769074E-015)) ;
#157=CARTESIAN_POINT('Vertex',(34.9250000001,-69.8500000003,4.27693769074E-015)) ;
#160=CARTESIAN_POINT('Axis2P3D Location',(0.,-69.8500000003,0.)) ;
#164=CARTESIAN_POINT('Vertex',(-34.9250000001,-69.8500000003,0.)) ;
#167=CARTESIAN_POINT('Line Origine',(-34.9250000001,0.,-8.55387538148E-015)) ;
#172=CARTESIAN_POINT('Axis2P3D Location',(0.,69.8500000003,0.)) ;
#187=CARTESIAN_POINT('Control Point',(34.9250000001,-8.54871728961E-015,7.1054273576E-015)) ;
#188=CARTESIAN_POINT('Control Point',(34.9250000001,-0.417718086047,0.417718086047)) ;
#189=CARTESIAN_POINT('Control Point',(34.9187548892,-0.835751033111,0.835118103638)) ;
#190=CARTESIAN_POINT('Control Point',(34.9072668403,-1.16789329701,1.16710256503)) ;
#191=CARTESIAN_POINT('Control Point',(34.8843174475,-1.74627338214,1.74571025185)) ;
#192=CARTESIAN_POINT('Control Point',(34.8493815028,-2.32421007255,2.32416429449)) ;
#193=CARTESIAN_POINT('Control Point',(34.8276309112,-2.65599511624,2.65599511172)) ;
#194=CARTESIAN_POINT('Control Point',(34.7325912855,-3.77026495002,3.77026495759)) ;
#195=CARTESIAN_POINT('Control Point',(34.5927339301,-4.88228448182,4.88228446917)) ;
#196=CARTESIAN_POINT('Control Point',(34.4876040273,-5.57699012734,5.57699011418)) ;
#197=CARTESIAN_POINT('Control Point',(33.7954666665,-9.48332732696,9.48332738796)) ;
#198=CARTESIAN_POINT('Control Point',(32.5376653157,-13.3321333362,13.3321330534)) ;
#199=CARTESIAN_POINT('Control Point',(31.1105660226,-16.4238079978,16.4238075596)) ;
#200=CARTESIAN_POINT('Control Point',(27.8524145152,-21.681444422,21.6814447556)) ;
#201=CARTESIAN_POINT('Control Point',(23.1830227753,-26.3577880695,26.3577878155)) ;
#202=CARTESIAN_POINT('Control Point',(20.8816467408,-28.2413135461,28.2413131967)) ;
#203=CARTESIAN_POINT('Control Point',(16.399901447,-31.1498483586,31.1498486135)) ;
#204=CARTESIAN_POINT('Control Point',(11.1135802664,-33.2414726223,33.2414724364)) ;
#205=CARTESIAN_POINT('Control Point',(8.75026952905,-33.9496711175,33.949671044)) ;
#206=CARTESIAN_POINT('Control Point',(4.38461380243,-34.8316503544,34.8316504111)) ;
#207=CARTESIAN_POINT('Control Point',(-0.134355264637,-35.0082369481,35.0082369044)) ;
#208=CARTESIAN_POINT('Control Point',(-2.10635598748,-34.9444872482,34.944487314)) ;
#209=CARTESIAN_POINT('Control Point',(-6.68916878677,-34.4698077362,34.4698076473)) ;
#210=CARTESIAN_POINT('Control Point',(-11.0266891671,-33.287225526,33.287225646)) ;
#211=CARTESIAN_POINT('Control Point',(-13.387535918,-32.3978288667,32.3978290665)) ;
#212=CARTESIAN_POINT('Control Point',(-19.2114602433,-29.6050173043,29.6050169758)) ;
#213=CARTESIAN_POINT('Control Point',(-23.9092527638,-25.8493974129,25.8493979532)) ;
#214=CARTESIAN_POINT('Control Point',(-26.3828811189,-23.2696429127,23.2696432462)) ;
#215=CARTESIAN_POINT('Control Point',(-30.8614999411,-17.3224080432,17.3224076506)) ;
#216=CARTESIAN_POINT('Control Point',(-33.513110491,-10.8383817762,10.8383822385)) ;
#217=CARTESIAN_POINT('Control Point',(-34.4541997106,-7.25508837349,7.25237729568)) ;
#218=CARTESIAN_POINT('Control Point',(-34.9250000001,-3.62686642853,3.62686642853)) ;
#219=CARTESIAN_POINT('Control Point',(-34.9250000001,-1.07774519466E-014,-8.76247328683E-015)) ;
#221=CARTESIAN_POINT('Axis2P3D Location',(0.,0.,69.8500000003)) ;
#233=CARTESIAN_POINT('Axis2P3D Location',(0.,-69.8500000003,0.)) ;
#245=CARTESIAN_POINT('Axis2P3D Location',(-11.6416666667,69.8500000003,-1.42564589691E-015)) ;
#250=CARTESIAN_POINT('Line Origine',(32.3215000001,69.8500000003,2.98803950334E-015)) ;
#254=CARTESIAN_POINT('Vertex',(29.7180000001,69.8500000003,-9.55815797607E-015)) ;
#257=CARTESIAN_POINT('Line Origine',(-32.3215000001,69.8500000003,0.)) ;
#261=CARTESIAN_POINT('Vertex',(-29.7180000001,69.8500000003,0.)) ;
#264=CARTESIAN_POINT('Axis2P3D Location',(0.,69.8500000003,0.)) ;
#276=CARTESIAN_POINT('Axis2P3D Location',(0.,0.,0.)) ;
#281=CARTESIAN_POINT('Axis2P3D Location',(0.,34.9250000001,0.)) ;
#285=CARTESIAN_POINT('Vertex',(-25.4000000001,34.9250000001,0.)) ;
#287=CARTESIAN_POINT('Vertex',(25.4000000001,34.9250000001,3.11050013872E-015)) ;
#290=CARTESIAN_POINT('Line Origine',(25.4000000001,0.,3.11050013872E-015)) ;
#294=CARTESIAN_POINT('Vertex',(25.4000000001,-2.10961131376E-014,3.11050013872E-015)) ;
#298=CARTESIAN_POINT('Control Point',(25.4000000001,9.59232693276E-014,3.5527136788E-015)) ;
#299=CARTESIAN_POINT('Control Point',(25.4000000001,2.38736684352,2.38736684352)) ;
#300=CARTESIAN_POINT('Control Point',(25.1195117892,4.7746637908,4.77466398296)) ;
#301=CARTESIAN_POINT('Control Point',(24.5588880472,7.13154537388,7.13154558288)) ;
#302=CARTESIAN_POINT('Control Point',(23.0006751233,11.3643186368,11.3643184603)) ;
#303=CARTESIAN_POINT('Control Point',(20.4879937776,15.2358388926,15.2358390418)) ;
#304=CARTESIAN_POINT('Control Point',(19.1401885144,16.9074387464,16.9074388639)) ;
#305=CARTESIAN_POINT('Control Point',(16.1926006037,19.8446238224,19.844623715)) ;
#306=CARTESIAN_POINT('Control Point',(12.6873786441,22.1401712859,22.140171384)) ;
#307=CARTESIAN_POINT('Control Point',(10.9162974866,23.0605239369,23.0605238525)) ;
#308=CARTESIAN_POINT('Control Point',(8.09668061076,24.186264505,24.1862645527)) ;
#309=CARTESIAN_POINT('Control Point',(5.36868410157,24.856547656,24.856547629)) ;
#310=CARTESIAN_POINT('Control Point',(4.40727209178,25.0416740616,25.0416740319)) ;
#311=CARTESIAN_POINT('Control Point',(2.85506591435,25.2681852428,25.2681852627)) ;
#312=CARTESIAN_POINT('Control Point',(1.3660272034,25.3736636449,25.3736636316)) ;
#313=CARTESIAN_POINT('Control Point',(0.777515235786,25.3982084032,25.3982084055)) ;
#314=CARTESIAN_POINT('Control Point',(-0.986997739805,25.4219083798,25.4219083752)) ;
#315=CARTESIAN_POINT('Control Point',(-2.76845631415,25.2910854233,25.2910854327)) ;
#316=CARTESIAN_POINT('Control Point',(-4.01046386024,25.1320799359,25.1320799928)) ;
#317=CARTESIAN_POINT('Control Point',(-6.44583422395,24.6538638631,24.6538638133)) ;
#318=CARTESIAN_POINT('Control Point',(-8.98664051914,23.8073734458,23.8073734893)) ;
#319=CARTESIAN_POINT('Control Point',(-10.1781414172,23.3258785355,23.3258785182)) ;
#320=CARTESIAN_POINT('Control Point',(-12.2212822171,22.3406812541,22.340681267)) ;
#321=CARTESIAN_POINT('Control Point',(-14.1656358986,21.1170919953,21.1170919858)) ;
#322=CARTESIAN_POINT('Control Point',(-14.9684765914,20.5557979193,20.5557978938)) ;
#323=CARTESIAN_POINT('Control Point',(-17.5838130609,18.5326043782,18.5326044387)) ;
#324=CARTESIAN_POINT('Control Point',(-19.8285776827,16.1239170242,16.12391688)) ;
#325=CARTESIAN_POINT('Control Point',(-21.1835673284,14.2836208484,14.28362068)) ;
#326=CARTESIAN_POINT('Control Point',(-23.0049795514,11.1426819988,11.1426821027)) ;
#327=CARTESIAN_POINT('Control Point',(-24.2267301483,7.80734077145,7.80734070775)) ;
#328=CARTESIAN_POINT('Control Point',(-24.604889557,6.51534527123,6.51534521113)) ;
#329=CARTESIAN_POINT('Control Point',(-24.9162415099,5.11718781382,5.11718781803)) ;
#330=CARTESIAN_POINT('Control Point',(-25.1281329579,3.70808717414,3.70808717385)) ;
#331=CARTESIAN_POINT('Control Point',(-25.1425892968,3.6087700572,3.60877005687)) ;
#332=CARTESIAN_POINT('Control Point',(-25.1793838741,3.34728566834,3.34728566894)) ;
#333=CARTESIAN_POINT('Control Point',(-25.2125442957,3.08718515199,3.08718515087)) ;
#334=CARTESIAN_POINT('Control Point',(-25.2323413349,2.92058242525,2.92058242382)) ;
#335=CARTESIAN_POINT('Control Point',(-25.2671336055,2.60592570595,2.60592570729)) ;
#336=CARTESIAN_POINT('Control Point',(-25.2954225588,2.30914062725,2.30914062599)) ;
#337=CARTESIAN_POINT('Control Point',(-25.3076259459,2.17056454361,2.17056454279)) ;
#338=CARTESIAN_POINT('Control Point',(-25.3306455575,1.88825927847,1.88825927939)) ;
#339=CARTESIAN_POINT('Control Point',(-25.3484798444,1.62566867929,1.62566867825)) ;
#340=CARTESIAN_POINT('Control Point',(-25.3566741162,1.4920603886,1.49206038835)) ;
#341=CARTESIAN_POINT('Control Point',(-25.3753566817,1.15323476533,1.15323476571)) ;
#342=CARTESIAN_POINT('Control Point',(-25.3895533902,0.779702370795,0.779702370244)) ;
#343=CARTESIAN_POINT('Control Point',(-25.3965233424,0.531568653911,0.531568656293)) ;
#344=CARTESIAN_POINT('Control Point',(-25.4000000001,0.265792559322,0.265792559322)) ;
#345=CARTESIAN_POINT('Control Point',(-25.4000000001,1.26273377329E-013,1.28826890285E-013)) ;
#346=CARTESIAN_POINT('Vertex',(-25.4000000001,2.59264245679E-013,0.)) ;
#349=CARTESIAN_POINT('Line Origine',(-25.4000000001,0.,0.)) ;
#361=CARTESIAN_POINT('Axis2P3D Location',(0.,69.8500000003,0.)) ;
#373=CARTESIAN_POINT('Axis2P3D Location',(0.,52.3875000002,0.)) ;
#378=CARTESIAN_POINT('Line Origine',(-29.7180000001,0.,0.)) ;
#382=CARTESIAN_POINT('Vertex',(-29.7180000001,34.9250000001,0.)) ;
#385=CARTESIAN_POINT('Line Origine',(29.7180000001,0.,3.6392851623E-015)) ;
#389=CARTESIAN_POINT('Vertex',(29.7180000001,34.9250000001,3.6392851623E-015)) ;
#392=CARTESIAN_POINT('Axis2P3D Location',(0.,34.9250000001,0.)) ;
#404=CARTESIAN_POINT('Axis2P3D Location',(0.,34.9250000001,0.)) ;
#416=CARTESIAN_POINT('Axis2P3D Location',(0.,34.9250000001,0.)) ;
#425=CARTESIAN_POINT('Axis2P3D Location',(5.3290705182E-015,34.9250000001,-3.5527136788E-015)) ;
#435=CARTESIAN_POINT('Axis2P3D Location',(0.,-34.9250000001,0.)) ;
#439=CARTESIAN_POINT('Vertex',(25.4000000001,-34.9250000001,3.11050013872E-015)) ;
#441=CARTESIAN_POINT('Vertex',(-25.4000000001,-34.9250000001,0.)) ;
#444=CARTESIAN_POINT('Line Origine',(25.4000000001,0.,3.11050013872E-015)) ;
#449=CARTESIAN_POINT('Line Origine',(-25.4000000001,0.,-6.22100027744E-015)) ;
#463=CARTESIAN_POINT('Axis2P3D Location',(-11.6416666667,-69.8500000003,-1.42564589691E-015)) ;
#468=CARTESIAN_POINT('Axis2P3D Location',(0.,-69.8500000003,0.)) ;
#472=CARTESIAN_POINT('Vertex',(29.7180000001,-69.8500000003,-9.55815797607E-015)) ;
#474=CARTESIAN_POINT('Vertex',(-29.7180000001,-69.8500000003,-7.27857032461E-015)) ;
#477=CARTESIAN_POINT('Line Origine',(-32.3215000001,-69.8500000003,-7.91622285305E-015)) ;
#482=CARTESIAN_POINT('Line Origine',(32.3215000001,-69.8500000003,2.98803950334E-015)) ;
#494=CARTESIAN_POINT('Axis2P3D Location',(0.,-69.8500000003,0.)) ;
#506=CARTESIAN_POINT('Axis2P3D Location',(0.,-34.9250000001,0.)) ;
#512=CARTESIAN_POINT('Control Point',(25.4000000001,9.57012247227E-014,3.10862446895E-015)) ;
#513=CARTESIAN_POINT('Control Point',(25.4000000001,-0.261656753441,0.261656753441)) ;
#514=CARTESIAN_POINT('Control Point',(25.3966306961,-0.523297550564,0.523297552872)) ;
#515=CARTESIAN_POINT('Control Point',(25.3898859532,-0.767774434325,0.767774434852)) ;
#516=CARTESIAN_POINT('Control Point',(25.3765922164,-1.12251998669,1.12251998637)) ;
#517=CARTESIAN_POINT('Control Point',(25.3592953468,-1.44493069955,1.44493069974)) ;
#518=CARTESIAN_POINT('Control Point',(25.3522115548,-1.56435776839,1.5643577691)) ;
#519=CARTESIAN_POINT('Control Point',(25.3245825534,-1.98881365274,1.98881365097)) ;
#520=CARTESIAN_POINT('Control Point',(25.2842488956,-2.45828175003,2.45828175445)) ;
#521=CARTESIAN_POINT('Control Point',(25.2453277268,-2.84036981347,2.84036981877)) ;
#522=CARTESIAN_POINT('Control Point',(25.0109385857,-4.72561548968,4.72561546951)) ;
#523=CARTESIAN_POINT('Control Point',(24.5994858738,-6.59277852789,6.5927786046)) ;
#524=CARTESIAN_POINT('Control Point',(24.1623579005,-8.05218960736,8.05218968923)) ;
#525=CARTESIAN_POINT('Control Point',(23.1272011838,-10.7517448005,10.7517447276)) ;
#526=CARTESIAN_POINT('Control Point',(21.6968297568,-13.3142450695,13.3142451338)) ;
#527=CARTESIAN_POINT('Control Point',(20.9377630641,-14.4810641148,14.4810641791)) ;
#528=CARTESIAN_POINT('Control Point',(18.6271589117,-17.5469801603,17.5469800486)) ;
#529=CARTESIAN_POINT('Control Point',(15.7083267156,-20.1947601739,20.1947603679)) ;
#530=CARTESIAN_POINT('Control Point',(13.6286962513,-21.6580840516,21.6580839876)) ;
#531=CARTESIAN_POINT('Control Point',(10.8587164337,-23.1068943944,23.10689441)) ;
#532=CARTESIAN_POINT('Control Point',(8.0797044863,-24.0910815646,24.0910815607)) ;
#533=CARTESIAN_POINT('Control Point',(7.53401740014,-24.2668857588,24.2668857492)) ;
#534=CARTESIAN_POINT('Control Point',(5.79993331161,-24.7726970318,24.7726970529)) ;
#535=CARTESIAN_POINT('Control Point',(4.11953035015,-25.1039786073,25.1039785607)) ;
#536=CARTESIAN_POINT('Control Point',(3.0070740463,-25.255930007,25.2559299904)) ;
#537=CARTESIAN_POINT('Control Point',(1.15563049783,-25.4153927539,25.415392766)) ;
#538=CARTESIAN_POINT('Control Point',(-0.655859995851,-25.4086610199,25.408661011)) ;
#539=CARTESIAN_POINT('Control Point',(-1.42350742742,-25.3779408357,25.3779408609)) ;
#540=CARTESIAN_POINT('Control Point',(-3.14691437881,-25.2435030241,25.2435029938)) ;
#541=CARTESIAN_POINT('Control Point',(-4.96143558692,-24.9416388242,24.9416388605)) ;
#542=CARTESIAN_POINT('Control Point',(-5.98540032366,-24.7196914952,24.719691519)) ;
#543=CARTESIAN_POINT('Control Point',(-8.68295490607,-23.9793435525,23.9793435148)) ;
#544=CARTESIAN_POINT('Control Point',(-11.4301521133,-22.7960033046,22.7960033641)) ;
#545=CARTESIAN_POINT('Control Point',(-13.0738866638,-21.8976379377,21.8976378498)) ;
#546=CARTESIAN_POINT('Control Point',(-16.0053741991,-19.9177958185,19.9177958966)) ;
#547=CARTESIAN_POINT('Control Point',(-18.5328384402,-17.4857331524,17.4857330833)) ;
#548=CARTESIAN_POINT('Control Point',(-19.6135762292,-16.2604173425,16.2604172554)) ;
#549=CARTESIAN_POINT('Control Point',(-21.3710276835,-13.9177856488,13.9177857196)) ;
#550=CARTESIAN_POINT('Control Point',(-22.7543857268,-11.3962218669,11.3962218095)) ;
#551=CARTESIAN_POINT('Control Point',(-23.2979224062,-10.2369592262,10.2369591716)) ;
#552=CARTESIAN_POINT('Control Point',(-24.3610829914,-7.54464593639,7.54464600626)) ;
#553=CARTESIAN_POINT('Control Point',(-25.0269802465,-4.75963356332,4.75963347409)) ;
#554=CARTESIAN_POINT('Control Point',(-25.27564583,-3.17919956999,3.17919965517)) ;
#555=CARTESIAN_POINT('Control Point',(-25.4000000001,-1.5896152792,1.5896152792)) ;
#556=CARTESIAN_POINT('Control Point',(-25.4000000001,1.26565424807E-013,1.27897692437E-013)) ;
#565=CARTESIAN_POINT('Axis2P3D Location',(0.,-34.9250000001,0.)) ;
#569=CARTESIAN_POINT('Vertex',(-29.7180000001,-34.9250000001,0.)) ;
#571=CARTESIAN_POINT('Vertex',(29.7180000001,-34.9250000001,3.6392851623E-015)) ;
#574=CARTESIAN_POINT('Line Origine',(29.7180000001,0.,3.6392851623E-015)) ;
#579=CARTESIAN_POINT('Line Origine',(-29.7180000001,0.,0.)) ;
#591=CARTESIAN_POINT('Axis2P3D Location',(0.,-34.9250000001,0.)) ;
#603=CARTESIAN_POINT('Axis2P3D Location',(0.,-34.9250000001,0.)) ;
#617=CARTESIAN_POINT('Axis2P3D Location',(11.6416666667,-1.42564589691E-015,69.8500000003)) ;
#622=CARTESIAN_POINT('Line Origine',(-32.3215000001,3.95811142652E-015,69.8500000003)) ;
#626=CARTESIAN_POINT('Vertex',(-29.7180000001,3.6392851623E-015,69.8500000003)) ;
#629=CARTESIAN_POINT('Line Origine',(32.3215000001,0.,69.8500000003)) ;
#633=CARTESIAN_POINT('Vertex',(29.7180000001,0.,69.8500000003)) ;
#636=CARTESIAN_POINT('Axis2P3D Location',(0.,0.,69.8500000003)) ;
#648=CARTESIAN_POINT('Axis2P3D Location',(0.,0.,34.9250000001)) ;
#653=CARTESIAN_POINT('Axis2P3D Location',(0.,0.,34.9250000001)) ;
#657=CARTESIAN_POINT('Vertex',(-25.4000000001,3.11050013872E-015,34.9250000001)) ;
#659=CARTESIAN_POINT('Vertex',(25.4000000001,0.,34.9250000001)) ;
#662=CARTESIAN_POINT('Line Origine',(25.4000000001,-6.22100027744E-015,34.9250000001)) ;
#667=CARTESIAN_POINT('Line Origine',(-25.4000000001,3.11050013872E-015,34.9250000001)) ;
#679=CARTESIAN_POINT('Axis2P3D Location',(0.,0.,69.8500000003)) ;
#691=CARTESIAN_POINT('Axis2P3D Location',(0.,0.,34.9250000001)) ;
#703=CARTESIAN_POINT('Axis2P3D Location',(0.,0.,52.3875000002)) ;
#708=CARTESIAN_POINT('Line Origine',(29.7180000001,0.,52.3875000002)) ;
#712=CARTESIAN_POINT('Vertex',(29.7180000001,0.,34.9250000001)) ;
#715=CARTESIAN_POINT('Line Origine',(-29.7180000001,3.6392851623E-015,52.3875000002)) ;
#719=CARTESIAN_POINT('Vertex',(-29.7180000001,3.6392851623E-015,34.9250000001)) ;
#722=CARTESIAN_POINT('Axis2P3D Location',(0.,0.,34.9250000001)) ;
#734=CARTESIAN_POINT('Axis2P3D Location',(0.,0.,34.9250000001)) ;
#746=CARTESIAN_POINT('Axis2P3D Location',(0.,0.,34.9250000001)) ;
#53=DIRECTION('Axis2P3D Direction',(0.,0.,1.)) ;
#54=DIRECTION('Axis2P3D XDirection',(1.,0.,0.)) ;
#58=DIRECTION('Axis2P3D Direction',(0.,0.,1.)) ;
#67=DIRECTION('Vector Direction',(0.,0.,1.)) ;
#111=DIRECTION('Vector Direction',(0.,0.,1.)) ;
#123=DIRECTION('Axis2P3D Direction',(0.,1.,0.)) ;
#124=DIRECTION('Axis2P3D XDirection',(-1.,0.,0.)) ;
#128=DIRECTION('Vector Direction',(0.,1.,0.)) ;
#135=DIRECTION('Axis2P3D Direction',(0.,1.,0.)) ;
#142=DIRECTION('Vector Direction',(0.,1.,0.)) ;
#154=DIRECTION('Vector Direction',(0.,1.,0.)) ;
#161=DIRECTION('Axis2P3D Direction',(0.,1.,0.)) ;
#168=DIRECTION('Vector Direction',(0.,1.,0.)) ;
#173=DIRECTION('Axis2P3D Direction',(0.,1.,0.)) ;
#222=DIRECTION('Axis2P3D Direction',(0.,0.,1.)) ;
#234=DIRECTION('Axis2P3D Direction',(0.,1.,0.)) ;
#246=DIRECTION('Axis2P3D Direction',(0.,1.,0.)) ;
#247=DIRECTION('Axis2P3D XDirection',(1.,-0.,0.)) ;
#251=DIRECTION('Vector Direction',(1.,0.,0.)) ;
#258=DIRECTION('Vector Direction',(-1.,0.,0.)) ;
#265=DIRECTION('Axis2P3D Direction',(0.,1.,0.)) ;
#277=DIRECTION('Axis2P3D Direction',(0.,1.,0.)) ;
#278=DIRECTION('Axis2P3D XDirection',(-1.,0.,0.)) ;
#282=DIRECTION('Axis2P3D Direction',(0.,1.,0.)) ;
#291=DIRECTION('Vector Direction',(0.,1.,0.)) ;
#350=DIRECTION('Vector Direction',(0.,1.,0.)) ;
#362=DIRECTION('Axis2P3D Direction',(0.,1.,0.)) ;
#374=DIRECTION('Axis2P3D Direction',(0.,1.,0.)) ;
#375=DIRECTION('Axis2P3D XDirection',(-1.,0.,0.)) ;
#379=DIRECTION('Vector Direction',(0.,1.,0.)) ;
#386=DIRECTION('Vector Direction',(0.,1.,0.)) ;
#393=DIRECTION('Axis2P3D Direction',(0.,1.,0.)) ;
#405=DIRECTION('Axis2P3D Direction',(0.,1.,0.)) ;
#417=DIRECTION('Axis2P3D Direction',(0.,1.,-0.)) ;
#418=DIRECTION('Axis2P3D XDirection',(-1.,0.,0.)) ;
#426=DIRECTION('Axis2P3D Direction',(0.,1.,-0.)) ;
#436=DIRECTION('Axis2P3D Direction',(0.,1.,0.)) ;
#445=DIRECTION('Vector Direction',(0.,1.,0.)) ;
#450=DIRECTION('Vector Direction',(0.,1.,0.)) ;
#464=DIRECTION('Axis2P3D Direction',(0.,1.,0.)) ;
#465=DIRECTION('Axis2P3D XDirection',(1.,-0.,0.)) ;
#469=DIRECTION('Axis2P3D Direction',(0.,1.,0.)) ;
#478=DIRECTION('Vector Direction',(-1.,0.,-2.44921270764E-016)) ;
#483=DIRECTION('Vector Direction',(1.,0.,0.)) ;
#495=DIRECTION('Axis2P3D Direction',(0.,1.,0.)) ;
#507=DIRECTION('Axis2P3D Direction',(0.,1.,0.)) ;
#566=DIRECTION('Axis2P3D Direction',(0.,1.,0.)) ;
#575=DIRECTION('Vector Direction',(0.,1.,0.)) ;
#580=DIRECTION('Vector Direction',(0.,1.,0.)) ;
#592=DIRECTION('Axis2P3D Direction',(0.,1.,0.)) ;
#604=DIRECTION('Axis2P3D Direction',(0.,1.,-0.)) ;
#605=DIRECTION('Axis2P3D XDirection',(-1.,0.,0.)) ;
#618=DIRECTION('Axis2P3D Direction',(0.,0.,1.)) ;
#619=DIRECTION('Axis2P3D XDirection',(1.,0.,0.)) ;
#623=DIRECTION('Vector Direction',(-1.,1.22460635382E-016,0.)) ;
#630=DIRECTION('Vector Direction',(1.,0.,0.)) ;
#637=DIRECTION('Axis2P3D Direction',(0.,0.,1.)) ;
#649=DIRECTION('Axis2P3D Direction',(0.,0.,1.)) ;
#650=DIRECTION('Axis2P3D XDirection',(1.,0.,0.)) ;
#654=DIRECTION('Axis2P3D Direction',(0.,0.,1.)) ;
#663=DIRECTION('Vector Direction',(0.,0.,1.)) ;
#668=DIRECTION('Vector Direction',(0.,0.,1.)) ;
#680=DIRECTION('Axis2P3D Direction',(0.,0.,1.)) ;
#692=DIRECTION('Axis2P3D Direction',(0.,0.,1.)) ;
#704=DIRECTION('Axis2P3D Direction',(0.,0.,1.)) ;
#705=DIRECTION('Axis2P3D XDirection',(1.,0.,0.)) ;
#709=DIRECTION('Vector Direction',(0.,0.,1.)) ;
#716=DIRECTION('Vector Direction',(0.,0.,1.)) ;
#723=DIRECTION('Axis2P3D Direction',(0.,0.,1.)) ;
#735=DIRECTION('Axis2P3D Direction',(0.,0.,1.)) ;
#747=DIRECTION('Axis2P3D Direction',(0.,0.,1.)) ;
#748=DIRECTION('Axis2P3D XDirection',(1.,0.,0.)) ;
#48=AXIS2_PLACEMENT_3D(' ',#47,$,$) ;
#55=AXIS2_PLACEMENT_3D('Cylinder Axis2P3D',#52,#53,#54) ;
#59=AXIS2_PLACEMENT_3D('Circle Axis2P3D',#57,#58,$) ;
#125=AXIS2_PLACEMENT_3D('Cylinder Axis2P3D',#122,#123,#124) ;
#136=AXIS2_PLACEMENT_3D('Circle Axis2P3D',#134,#135,$) ;
#162=AXIS2_PLACEMENT_3D('Circle Axis2P3D',#160,#161,$) ;
#174=AXIS2_PLACEMENT_3D('Circle Axis2P3D',#172,#173,$) ;
#223=AXIS2_PLACEMENT_3D('Circle Axis2P3D',#221,#222,$) ;
#235=AXIS2_PLACEMENT_3D('Circle Axis2P3D',#233,#234,$) ;
#248=AXIS2_PLACEMENT_3D('Plane Axis2P3D',#245,#246,#247) ;
#266=AXIS2_PLACEMENT_3D('Circle Axis2P3D',#264,#265,$) ;
#279=AXIS2_PLACEMENT_3D('Cylinder Axis2P3D',#276,#277,#278) ;
#283=AXIS2_PLACEMENT_3D('Circle Axis2P3D',#281,#282,$) ;
#363=AXIS2_PLACEMENT_3D('Circle Axis2P3D',#361,#362,$) ;
#376=AXIS2_PLACEMENT_3D('Cylinder Axis2P3D',#373,#374,#375) ;
#394=AXIS2_PLACEMENT_3D('Circle Axis2P3D',#392,#393,$) ;
#406=AXIS2_PLACEMENT_3D('Circle Axis2P3D',#404,#405,$) ;
#419=AXIS2_PLACEMENT_3D('Plane Axis2P3D',#416,#417,#418) ;
#427=AXIS2_PLACEMENT_3D('Circle Axis2P3D',#425,#426,$) ;
#437=AXIS2_PLACEMENT_3D('Circle Axis2P3D',#435,#436,$) ;
#466=AXIS2_PLACEMENT_3D('Plane Axis2P3D',#463,#464,#465) ;
#470=AXIS2_PLACEMENT_3D('Circle Axis2P3D',#468,#469,$) ;
#496=AXIS2_PLACEMENT_3D('Circle Axis2P3D',#494,#495,$) ;
#508=AXIS2_PLACEMENT_3D('Circle Axis2P3D',#506,#507,$) ;
#567=AXIS2_PLACEMENT_3D('Circle Axis2P3D',#565,#566,$) ;
#593=AXIS2_PLACEMENT_3D('Circle Axis2P3D',#591,#592,$) ;
#606=AXIS2_PLACEMENT_3D('Plane Axis2P3D',#603,#604,#605) ;
#620=AXIS2_PLACEMENT_3D('Plane Axis2P3D',#617,#618,#619) ;
#638=AXIS2_PLACEMENT_3D('Circle Axis2P3D',#636,#637,$) ;
#651=AXIS2_PLACEMENT_3D('Cylinder Axis2P3D',#648,#649,#650) ;
#655=AXIS2_PLACEMENT_3D('Circle Axis2P3D',#653,#654,$) ;
#681=AXIS2_PLACEMENT_3D('Circle Axis2P3D',#679,#680,$) ;
#693=AXIS2_PLACEMENT_3D('Circle Axis2P3D',#691,#692,$) ;
#706=AXIS2_PLACEMENT_3D('Cylinder Axis2P3D',#703,#704,#705) ;
#724=AXIS2_PLACEMENT_3D('Circle Axis2P3D',#722,#723,$) ;
#736=AXIS2_PLACEMENT_3D('Circle Axis2P3D',#734,#735,$) ;
#749=AXIS2_PLACEMENT_3D('Plane Axis2P3D',#746,#747,#748) ;
#40=PRODUCT_DEFINITION_SHAPE(' ',' ',#14) ;
#31=APPROVAL_PERSON_ORGANIZATION(#25,#21,#19) ;
#25=PERSON_AND_ORGANIZATION(#22,#23) ;
#22=PERSON(' ',' ',' ',$,$,$) ;
#23=ORGANIZATION(' ',' ',' ') ;
#21=APPROVAL(#20,' ') ;
#20=APPROVAL_STATUS('not_yet_approved') ;
#19=APPROVAL_ROLE('APPROVER') ;
#13=DATE_AND_TIME(#11,#12) ;
#12=LOCAL_TIME(20,12,44.,#10) ;
#10=COORDINATED_UNIVERSAL_TIME_OFFSET(0,0,.AHEAD.) ;
#116=ORIENTED_EDGE('',*,*,#65,.T.) ;
#117=ORIENTED_EDGE('',*,*,#72,.F.) ;
#118=ORIENTED_EDGE('',*,*,#109,.F.) ;
#119=ORIENTED_EDGE('',*,*,#114,.T.) ;
#147=ORIENTED_EDGE('',*,*,#133,.T.) ;
#148=ORIENTED_EDGE('',*,*,#140,.T.) ;
#149=ORIENTED_EDGE('',*,*,#145,.F.) ;
#150=ORIENTED_EDGE('',*,*,#109,.T.) ;
#178=ORIENTED_EDGE('',*,*,#133,.F.) ;
#179=ORIENTED_EDGE('',*,*,#159,.F.) ;
#180=ORIENTED_EDGE('',*,*,#166,.F.) ;
#181=ORIENTED_EDGE('',*,*,#171,.T.) ;
#182=ORIENTED_EDGE('',*,*,#145,.T.) ;
#183=ORIENTED_EDGE('',*,*,#176,.T.) ;
#227=ORIENTED_EDGE('',*,*,#114,.F.) ;
#228=ORIENTED_EDGE('',*,*,#220,.F.) ;
#229=ORIENTED_EDGE('',*,*,#72,.T.) ;
#230=ORIENTED_EDGE('',*,*,#225,.T.) ;
#239=ORIENTED_EDGE('',*,*,#171,.F.) ;
#240=ORIENTED_EDGE('',*,*,#237,.F.) ;
#241=ORIENTED_EDGE('',*,*,#159,.T.) ;
#242=ORIENTED_EDGE('',*,*,#220,.T.) ;
#270=ORIENTED_EDGE('',*,*,#256,.T.) ;
#271=ORIENTED_EDGE('',*,*,#176,.F.) ;
#272=ORIENTED_EDGE('',*,*,#263,.F.) ;
#273=ORIENTED_EDGE('',*,*,#268,.F.) ;
#355=ORIENTED_EDGE('',*,*,#289,.T.) ;
#356=ORIENTED_EDGE('',*,*,#296,.F.) ;
#357=ORIENTED_EDGE('',*,*,#348,.T.) ;
#358=ORIENTED_EDGE('',*,*,#353,.T.) ;
#367=ORIENTED_EDGE('',*,*,#263,.T.) ;
#368=ORIENTED_EDGE('',*,*,#140,.F.) ;
#369=ORIENTED_EDGE('',*,*,#256,.F.) ;
#370=ORIENTED_EDGE('',*,*,#365,.F.) ;
#398=ORIENTED_EDGE('',*,*,#384,.F.) ;
#399=ORIENTED_EDGE('',*,*,#365,.T.) ;
#400=ORIENTED_EDGE('',*,*,#391,.T.) ;
#401=ORIENTED_EDGE('',*,*,#396,.F.) ;
#410=ORIENTED_EDGE('',*,*,#391,.F.) ;
#411=ORIENTED_EDGE('',*,*,#268,.T.) ;
#412=ORIENTED_EDGE('',*,*,#384,.T.) ;
#413=ORIENTED_EDGE('',*,*,#408,.F.) ;
#422=ORIENTED_EDGE('',*,*,#396,.T.) ;
#423=ORIENTED_EDGE('',*,*,#408,.T.) ;
#431=ORIENTED_EDGE('',*,*,#289,.F.) ;
#432=ORIENTED_EDGE('',*,*,#429,.F.) ;
#455=ORIENTED_EDGE('',*,*,#443,.F.) ;
#456=ORIENTED_EDGE('',*,*,#448,.T.) ;
#457=ORIENTED_EDGE('',*,*,#296,.T.) ;
#458=ORIENTED_EDGE('',*,*,#429,.T.) ;
#459=ORIENTED_EDGE('',*,*,#353,.F.) ;
#460=ORIENTED_EDGE('',*,*,#453,.F.) ;
#488=ORIENTED_EDGE('',*,*,#476,.T.) ;
#489=ORIENTED_EDGE('',*,*,#481,.T.) ;
#490=ORIENTED_EDGE('',*,*,#166,.T.) ;
#491=ORIENTED_EDGE('',*,*,#486,.F.) ;
#500=ORIENTED_EDGE('',*,*,#498,.T.) ;
#501=ORIENTED_EDGE('',*,*,#486,.T.) ;
#502=ORIENTED_EDGE('',*,*,#237,.T.) ;
#503=ORIENTED_EDGE('',*,*,#481,.F.) ;
#559=ORIENTED_EDGE('',*,*,#510,.F.) ;
#560=ORIENTED_EDGE('',*,*,#453,.T.) ;
#561=ORIENTED_EDGE('',*,*,#557,.F.) ;
#562=ORIENTED_EDGE('',*,*,#448,.F.) ;
#585=ORIENTED_EDGE('',*,*,#573,.T.) ;
#586=ORIENTED_EDGE('',*,*,#578,.F.) ;
#587=ORIENTED_EDGE('',*,*,#498,.F.) ;
#588=ORIENTED_EDGE('',*,*,#583,.T.) ;
#597=ORIENTED_EDGE('',*,*,#595,.T.) ;
#598=ORIENTED_EDGE('',*,*,#583,.F.) ;
#599=ORIENTED_EDGE('',*,*,#476,.F.) ;
#600=ORIENTED_EDGE('',*,*,#578,.T.) ;
#609=ORIENTED_EDGE('',*,*,#595,.F.) ;
#610=ORIENTED_EDGE('',*,*,#573,.F.) ;
#613=ORIENTED_EDGE('',*,*,#443,.T.) ;
#614=ORIENTED_EDGE('',*,*,#510,.T.) ;
#642=ORIENTED_EDGE('',*,*,#628,.T.) ;
#643=ORIENTED_EDGE('',*,*,#225,.F.) ;
#644=ORIENTED_EDGE('',*,*,#635,.F.) ;
#645=ORIENTED_EDGE('',*,*,#640,.F.) ;
#673=ORIENTED_EDGE('',*,*,#661,.T.) ;
#674=ORIENTED_EDGE('',*,*,#666,.F.) ;
#675=ORIENTED_EDGE('',*,*,#557,.T.) ;
#676=ORIENTED_EDGE('',*,*,#671,.T.) ;
#685=ORIENTED_EDGE('',*,*,#635,.T.) ;
#686=ORIENTED_EDGE('',*,*,#65,.F.) ;
#687=ORIENTED_EDGE('',*,*,#628,.F.) ;
#688=ORIENTED_EDGE('',*,*,#683,.F.) ;
#697=ORIENTED_EDGE('',*,*,#695,.T.) ;
#698=ORIENTED_EDGE('',*,*,#671,.F.) ;
#699=ORIENTED_EDGE('',*,*,#348,.F.) ;
#700=ORIENTED_EDGE('',*,*,#666,.T.) ;
#728=ORIENTED_EDGE('',*,*,#714,.F.) ;
#729=ORIENTED_EDGE('',*,*,#683,.T.) ;
#730=ORIENTED_EDGE('',*,*,#721,.T.) ;
#731=ORIENTED_EDGE('',*,*,#726,.F.) ;
#740=ORIENTED_EDGE('',*,*,#721,.F.) ;
#741=ORIENTED_EDGE('',*,*,#640,.T.) ;
#742=ORIENTED_EDGE('',*,*,#714,.T.) ;
#743=ORIENTED_EDGE('',*,*,#738,.F.) ;
#752=ORIENTED_EDGE('',*,*,#726,.T.) ;
#753=ORIENTED_EDGE('',*,*,#738,.T.) ;
#756=ORIENTED_EDGE('',*,*,#695,.F.) ;
#757=ORIENTED_EDGE('',*,*,#661,.F.) ;
#433=FACE_BOUND('',#430,.T.) ;
#615=FACE_BOUND('',#612,.T.) ;
#758=FACE_BOUND('',#755,.T.) ;
#51=CLOSED_SHELL('Closed Shell',(#121,#152,#185,#232,#244,#275,#360,#372,#403,#415,#434,#462,#493,#505,#564,#590,#602,#616,#647,#678,#690,#702,#733,#745,#759)) ;
#68=VECTOR('Line Direction',#67,1.) ;
#112=VECTOR('Line Direction',#111,1.) ;
#129=VECTOR('Line Direction',#128,1.) ;
#143=VECTOR('Line Direction',#142,1.) ;
#155=VECTOR('Line Direction',#154,1.) ;
#169=VECTOR('Line Direction',#168,1.) ;
#252=VECTOR('Line Direction',#251,1.) ;
#259=VECTOR('Line Direction',#258,1.) ;
#292=VECTOR('Line Direction',#291,1.) ;
#351=VECTOR('Line Direction',#350,1.) ;
#380=VECTOR('Line Direction',#379,1.) ;
#387=VECTOR('Line Direction',#386,1.) ;
#446=VECTOR('Line Direction',#445,1.) ;
#451=VECTOR('Line Direction',#450,1.) ;
#479=VECTOR('Line Direction',#478,1.) ;
#484=VECTOR('Line Direction',#483,1.) ;
#576=VECTOR('Line Direction',#575,1.) ;
#581=VECTOR('Line Direction',#580,1.) ;
#624=VECTOR('Line Direction',#623,1.) ;
#631=VECTOR('Line Direction',#630,1.) ;
#664=VECTOR('Line Direction',#663,1.) ;
#669=VECTOR('Line Direction',#668,1.) ;
#710=VECTOR('Line Direction',#709,1.) ;
#717=VECTOR('Line Direction',#716,1.) ;
#761=ADVANCED_BREP_SHAPE_REPRESENTATION('NONE',(#760),#46) ;
#49=SHAPE_REPRESENTATION(' ',(#48),#46) ;
#121=ADVANCED_FACE('PartBody',(#120),#56,.T.) ;
#152=ADVANCED_FACE('PartBody',(#151),#126,.T.) ;
#185=ADVANCED_FACE('PartBody',(#184),#126,.T.) ;
#232=ADVANCED_FACE('PartBody',(#231),#56,.T.) ;
#244=ADVANCED_FACE('PartBody',(#243),#126,.T.) ;
#275=ADVANCED_FACE('PartBody',(#274),#249,.T.) ;
#360=ADVANCED_FACE('PartBody',(#359),#280,.F.) ;
#372=ADVANCED_FACE('PartBody',(#371),#249,.T.) ;
#403=ADVANCED_FACE('PartBody',(#402),#377,.F.) ;
#415=ADVANCED_FACE('PartBody',(#414),#377,.F.) ;
#434=ADVANCED_FACE('PartBody',(#424,#433),#420,.T.) ;
#462=ADVANCED_FACE('PartBody',(#461),#280,.F.) ;
#493=ADVANCED_FACE('PartBody',(#492),#467,.F.) ;
#505=ADVANCED_FACE('PartBody',(#504),#467,.F.) ;
#564=ADVANCED_FACE('PartBody',(#563),#280,.F.) ;
#590=ADVANCED_FACE('PartBody',(#589),#377,.F.) ;
#602=ADVANCED_FACE('PartBody',(#601),#377,.F.) ;
#616=ADVANCED_FACE('PartBody',(#611,#615),#607,.F.) ;
#647=ADVANCED_FACE('PartBody',(#646),#621,.T.) ;
#678=ADVANCED_FACE('PartBody',(#677),#652,.F.) ;
#690=ADVANCED_FACE('PartBody',(#689),#621,.T.) ;
#702=ADVANCED_FACE('PartBody',(#701),#652,.F.) ;
#733=ADVANCED_FACE('PartBody',(#732),#707,.F.) ;
#745=ADVANCED_FACE('PartBody',(#744),#707,.F.) ;
#759=ADVANCED_FACE('PartBody',(#754,#758),#750,.T.) ;
#4=APPLICATION_PROTOCOL_DEFINITION('international standard','config_control_design',1994,#1) ;
#32=APPROVAL_DATE_TIME(#13,#21) ;
#73=B_SPLINE_CURVE_WITH_KNOTS('',5,(#74,#75,#76,#77,#78,#79,#80,#81,#82,#83,#84,#85,#86,#87,#88,#89,#90,#91,#92,#93,#94,#95,#96,#97,#98,#99,#100,#101,#102,#103,#104,#105,#106),.UNSPECIFIED.,.F.,.U.,(6,3,3,3,3,3,3,3,3,3,6),(0.,4.17719795479,8.35439590959,15.3395274695,47.7166306251,72.3663728697,90.344343349,104.217739184,122.948369024,153.751185283,190.01984957),.UNSPECIFIED.) ;
#186=B_SPLINE_CURVE_WITH_KNOTS('',5,(#187,#188,#189,#190,#191,#192,#193,#194,#195,#196,#197,#198,#199,#200,#201,#202,#203,#204,#205,#206,#207,#208,#209,#210,#211,#212,#213,#214,#215,#216,#217,#218,#219),.UNSPECIFIED.,.F.,.U.,(6,3,3,3,3,3,3,3,3,3,6),(0.,4.17718086047,8.35436172094,15.3394932811,47.7165964348,72.366338679,90.3443091584,104.217704994,122.948334833,153.751151093,190.019815379),.UNSPECIFIED.) ;
#297=B_SPLINE_CURVE_WITH_KNOTS('',5,(#298,#299,#300,#301,#302,#303,#304,#305,#306,#307,#308,#309,#310,#311,#312,#313,#314,#315,#316,#317,#318,#319,#320,#321,#322,#323,#324,#325,#326,#327,#328,#329,#330,#331,#332,#333,#334,#335,#336,#337,#338,#339,#340,#341,#342,#343,#344,#345),.UNSPECIFIED.,.F.,.U.,(6,3,3,3,3,3,3,3,3,3,3,3,3,3,3,6),(0.,34.2932302165,63.2665274459,89.728876932,104.676744806,114.66711194,134.766650456,152.349227093,165.364769662,196.357317921,215.427598464,216.759401282,219.205716992,221.496888015,224.068261074,227.886227069),.UNSPECIFIED.) ;
#511=B_SPLINE_CURVE_WITH_KNOTS('',5,(#512,#513,#514,#515,#516,#517,#518,#519,#520,#521,#522,#523,#524,#525,#526,#527,#528,#529,#530,#531,#532,#533,#534,#535,#536,#537,#538,#539,#540,#541,#542,#543,#544,#545,#546,#547,#548,#549,#550,#551,#552,#553,#554,#555,#556),.UNSPECIFIED.,.F.,.U.,(6,3,3,3,3,3,3,3,3,3,3,3,3,3,6),(0.,3.75855738626,6.03704641189,11.7023030094,33.261471283,52.3699887334,85.5569857806,93.6953341764,111.595906509,124.669962913,140.369322259,165.192491269,187.200908858,205.075769749,227.909731305),.UNSPECIFIED.) ;
#760=MANIFOLD_SOLID_BREP('PartBody',#51) ;
#11=CALENDAR_DATE(2020,18,5) ;
#30=CC_DESIGN_APPROVAL(#21,(#16,#6,#14)) ;
#18=CC_DESIGN_DATE_AND_TIME_ASSIGNMENT(#13,#17,(#16)) ;
#29=CC_DESIGN_DATE_AND_TIME_ASSIGNMENT(#13,#28,(#14)) ;
#17=DATE_TIME_ROLE('classification_date') ;
#28=DATE_TIME_ROLE('creation_date') ;
#27=CC_DESIGN_PERSON_AND_ORGANIZATION_ASSIGNMENT(#25,#26,(#16)) ;
#33=CC_DESIGN_PERSON_AND_ORGANIZATION_ASSIGNMENT(#25,#34,(#6)) ;
#35=CC_DESIGN_PERSON_AND_ORGANIZATION_ASSIGNMENT(#25,#36,(#6,#14)) ;
#37=CC_DESIGN_PERSON_AND_ORGANIZATION_ASSIGNMENT(#25,#38,(#5)) ;
#26=PERSON_AND_ORGANIZATION_ROLE('classification_officer') ;
#34=PERSON_AND_ORGANIZATION_ROLE('design_supplier') ;
#36=PERSON_AND_ORGANIZATION_ROLE('creator') ;
#38=PERSON_AND_ORGANIZATION_ROLE('design_owner') ;
#39=CC_DESIGN_SECURITY_CLASSIFICATION(#16,(#6)) ;
#60=CIRCLE('generated circle',#59,34.9250000001) ;
#137=CIRCLE('generated circle',#136,34.9250000001) ;
#163=CIRCLE('generated circle',#162,34.9250000001) ;
#175=CIRCLE('generated circle',#174,34.9250000001) ;
#224=CIRCLE('generated circle',#223,34.9250000001) ;
#236=CIRCLE('generated circle',#235,34.9250000001) ;
#267=CIRCLE('generated circle',#266,29.7180000001) ;
#284=CIRCLE('generated circle',#283,25.4000000001) ;
#364=CIRCLE('generated circle',#363,29.7180000001) ;
#395=CIRCLE('generated circle',#394,29.7180000001) ;
#407=CIRCLE('generated circle',#406,29.7180000001) ;
#428=CIRCLE('generated circle',#427,25.4000000001) ;
#438=CIRCLE('generated circle',#437,25.4000000001) ;
#471=CIRCLE('generated circle',#470,29.7180000001) ;
#497=CIRCLE('generated circle',#496,29.7180000001) ;
#509=CIRCLE('generated circle',#508,25.4000000001) ;
#568=CIRCLE('generated circle',#567,29.7180000001) ;
#594=CIRCLE('generated circle',#593,29.7180000001) ;
#639=CIRCLE('generated circle',#638,29.7180000001) ;
#656=CIRCLE('generated circle',#655,25.4000000001) ;
#682=CIRCLE('generated circle',#681,29.7180000001) ;
#694=CIRCLE('generated circle',#693,25.4000000001) ;
#725=CIRCLE('generated circle',#724,29.7180000001) ;
#737=CIRCLE('generated circle',#736,29.7180000001) ;
#762=SHAPE_REPRESENTATION_RELATIONSHIP(' ',' ',#49,#761) ;
#56=CYLINDRICAL_SURFACE('generated cylinder',#55,34.9250000001) ;
#126=CYLINDRICAL_SURFACE('generated cylinder',#125,34.9250000001) ;
#280=CYLINDRICAL_SURFACE('generated cylinder',#279,25.4000000001) ;
#377=CYLINDRICAL_SURFACE('generated cylinder',#376,29.7180000001) ;
#652=CYLINDRICAL_SURFACE('generated cylinder',#651,25.4000000001) ;
#707=CYLINDRICAL_SURFACE('generated cylinder',#706,29.7180000001) ;
#3=DESIGN_CONTEXT(' ',#1,'design') ;
#65=EDGE_CURVE('',#62,#64,#60,.F.) ;
#72=EDGE_CURVE('',#71,#64,#69,.T.) ;
#109=EDGE_CURVE('',#108,#71,#73,.T.) ;
#114=EDGE_CURVE('',#108,#62,#113,.T.) ;
#133=EDGE_CURVE('',#71,#132,#130,.T.) ;
#140=EDGE_CURVE('',#132,#139,#137,.F.) ;
#145=EDGE_CURVE('',#108,#139,#144,.T.) ;
#159=EDGE_CURVE('',#158,#71,#156,.T.) ;
#166=EDGE_CURVE('',#165,#158,#163,.F.) ;
#171=EDGE_CURVE('',#165,#108,#170,.T.) ;
#176=EDGE_CURVE('',#139,#132,#175,.F.) ;
#220=EDGE_CURVE('',#71,#108,#186,.T.) ;
#225=EDGE_CURVE('',#64,#62,#224,.F.) ;
#237=EDGE_CURVE('',#158,#165,#236,.F.) ;
#256=EDGE_CURVE('',#255,#132,#253,.T.) ;
#263=EDGE_CURVE('',#262,#139,#260,.T.) ;
#268=EDGE_CURVE('',#255,#262,#267,.T.) ;
#289=EDGE_CURVE('',#286,#288,#284,.T.) ;
#296=EDGE_CURVE('',#295,#288,#293,.T.) ;
#348=EDGE_CURVE('',#295,#347,#297,.T.) ;
#353=EDGE_CURVE('',#347,#286,#352,.T.) ;
#365=EDGE_CURVE('',#262,#255,#364,.T.) ;
#384=EDGE_CURVE('',#262,#383,#381,.F.) ;
#391=EDGE_CURVE('',#255,#390,#388,.F.) ;
#396=EDGE_CURVE('',#383,#390,#395,.T.) ;
#408=EDGE_CURVE('',#390,#383,#407,.T.) ;
#429=EDGE_CURVE('',#288,#286,#428,.T.) ;
#443=EDGE_CURVE('',#440,#442,#438,.T.) ;
#448=EDGE_CURVE('',#440,#295,#447,.T.) ;
#453=EDGE_CURVE('',#442,#347,#452,.T.) ;
#476=EDGE_CURVE('',#473,#475,#471,.T.) ;
#481=EDGE_CURVE('',#475,#165,#480,.T.) ;
#486=EDGE_CURVE('',#473,#158,#485,.T.) ;
#498=EDGE_CURVE('',#475,#473,#497,.T.) ;
#510=EDGE_CURVE('',#442,#440,#509,.T.) ;
#557=EDGE_CURVE('',#295,#347,#511,.T.) ;
#573=EDGE_CURVE('',#570,#572,#568,.T.) ;
#578=EDGE_CURVE('',#473,#572,#577,.T.) ;
#583=EDGE_CURVE('',#475,#570,#582,.T.) ;
#595=EDGE_CURVE('',#572,#570,#594,.T.) ;
#628=EDGE_CURVE('',#627,#62,#625,.T.) ;
#635=EDGE_CURVE('',#634,#64,#632,.T.) ;
#640=EDGE_CURVE('',#627,#634,#639,.T.) ;
#661=EDGE_CURVE('',#658,#660,#656,.T.) ;
#666=EDGE_CURVE('',#295,#660,#665,.T.) ;
#671=EDGE_CURVE('',#347,#658,#670,.T.) ;
#683=EDGE_CURVE('',#634,#627,#682,.T.) ;
#695=EDGE_CURVE('',#660,#658,#694,.T.) ;
#714=EDGE_CURVE('',#634,#713,#711,.F.) ;
#721=EDGE_CURVE('',#627,#720,#718,.F.) ;
#726=EDGE_CURVE('',#713,#720,#725,.T.) ;
#738=EDGE_CURVE('',#720,#713,#737,.T.) ;
#115=EDGE_LOOP('',(#116,#117,#118,#119)) ;
#146=EDGE_LOOP('',(#147,#148,#149,#150)) ;
#177=EDGE_LOOP('',(#178,#179,#180,#181,#182,#183)) ;
#226=EDGE_LOOP('',(#227,#228,#229,#230)) ;
#238=EDGE_LOOP('',(#239,#240,#241,#242)) ;
#269=EDGE_LOOP('',(#270,#271,#272,#273)) ;
#354=EDGE_LOOP('',(#355,#356,#357,#358)) ;
#366=EDGE_LOOP('',(#367,#368,#369,#370)) ;
#397=EDGE_LOOP('',(#398,#399,#400,#401)) ;
#409=EDGE_LOOP('',(#410,#411,#412,#413)) ;
#421=EDGE_LOOP('',(#422,#423)) ;
#430=EDGE_LOOP('',(#431,#432)) ;
#454=EDGE_LOOP('',(#455,#456,#457,#458,#459,#460)) ;
#487=EDGE_LOOP('',(#488,#489,#490,#491)) ;
#499=EDGE_LOOP('',(#500,#501,#502,#503)) ;
#558=EDGE_LOOP('',(#559,#560,#561,#562)) ;
#584=EDGE_LOOP('',(#585,#586,#587,#588)) ;
#596=EDGE_LOOP('',(#597,#598,#599,#600)) ;
#608=EDGE_LOOP('',(#609,#610)) ;
#612=EDGE_LOOP('',(#613,#614)) ;
#641=EDGE_LOOP('',(#642,#643,#644,#645)) ;
#672=EDGE_LOOP('',(#673,#674,#675,#676)) ;
#684=EDGE_LOOP('',(#685,#686,#687,#688)) ;
#696=EDGE_LOOP('',(#697,#698,#699,#700)) ;
#727=EDGE_LOOP('',(#728,#729,#730,#731)) ;
#739=EDGE_LOOP('',(#740,#741,#742,#743)) ;
#751=EDGE_LOOP('',(#752,#753)) ;
#755=EDGE_LOOP('',(#756,#757)) ;
#120=FACE_OUTER_BOUND('',#115,.T.) ;
#151=FACE_OUTER_BOUND('',#146,.T.) ;
#184=FACE_OUTER_BOUND('',#177,.T.) ;
#231=FACE_OUTER_BOUND('',#226,.T.) ;
#243=FACE_OUTER_BOUND('',#238,.T.) ;
#274=FACE_OUTER_BOUND('',#269,.T.) ;
#359=FACE_OUTER_BOUND('',#354,.T.) ;
#371=FACE_OUTER_BOUND('',#366,.T.) ;
#402=FACE_OUTER_BOUND('',#397,.T.) ;
#414=FACE_OUTER_BOUND('',#409,.T.) ;
#424=FACE_OUTER_BOUND('',#421,.T.) ;
#461=FACE_OUTER_BOUND('',#454,.T.) ;
#492=FACE_OUTER_BOUND('',#487,.T.) ;
#504=FACE_OUTER_BOUND('',#499,.T.) ;
#563=FACE_OUTER_BOUND('',#558,.T.) ;
#589=FACE_OUTER_BOUND('',#584,.T.) ;
#601=FACE_OUTER_BOUND('',#596,.T.) ;
#611=FACE_OUTER_BOUND('',#608,.T.) ;
#646=FACE_OUTER_BOUND('',#641,.T.) ;
#677=FACE_OUTER_BOUND('',#672,.T.) ;
#689=FACE_OUTER_BOUND('',#684,.T.) ;
#701=FACE_OUTER_BOUND('',#696,.T.) ;
#732=FACE_OUTER_BOUND('',#727,.T.) ;
#744=FACE_OUTER_BOUND('',#739,.T.) ;
#754=FACE_OUTER_BOUND('',#751,.T.) ;
#45=UNCERTAINTY_MEASURE_WITH_UNIT(LENGTH_MEASURE(0.005),#41,'distance_accuracy_value','CONFUSED CURVE UNCERTAINTY') ;
#69=LINE('Line',#66,#68) ;
#113=LINE('Line',#110,#112) ;
#130=LINE('Line',#127,#129) ;
#144=LINE('Line',#141,#143) ;
#156=LINE('Line',#153,#155) ;
#170=LINE('Line',#167,#169) ;
#253=LINE('Line',#250,#252) ;
#260=LINE('Line',#257,#259) ;
#293=LINE('Line',#290,#292) ;
#352=LINE('Line',#349,#351) ;
#381=LINE('Line',#378,#380) ;
#388=LINE('Line',#385,#387) ;
#447=LINE('Line',#444,#446) ;
#452=LINE('Line',#449,#451) ;
#480=LINE('Line',#477,#479) ;
#485=LINE('Line',#482,#484) ;
#577=LINE('Line',#574,#576) ;
#582=LINE('Line',#579,#581) ;
#625=LINE('Line',#622,#624) ;
#632=LINE('Line',#629,#631) ;
#665=LINE('Line',#662,#664) ;
#670=LINE('Line',#667,#669) ;
#711=LINE('Line',#708,#710) ;
#718=LINE('Line',#715,#717) ;
#2=MECHANICAL_CONTEXT(' ',#1,'mechanical') ;
#24=PERSONAL_ADDRESS(' ',' ',' ',' ',' ',' ',' ',' ',' ',' ',' ',' ',(#22),' ') ;
#249=PLANE('Plane',#248) ;
#420=PLANE('Plane',#419) ;
#467=PLANE('Plane',#466) ;
#607=PLANE('Plane',#606) ;
#621=PLANE('Plane',#620) ;
#750=PLANE('Plane',#749) ;
#43=PLANE_ANGLE_MEASURE_WITH_UNIT(PLANE_ANGLE_MEASURE(0.0174532925199),#42) ;
#7=PRODUCT_CATEGORY('part',$) ;
#9=PRODUCT_CATEGORY_RELATIONSHIP(' ',' ',#7,#8) ;
#6=PRODUCT_DEFINITION_FORMATION_WITH_SPECIFIED_SOURCE('',' ',#5,.NOT_KNOWN.) ;
#8=PRODUCT_RELATED_PRODUCT_CATEGORY('detail',$,(#5)) ;
#50=SHAPE_DEFINITION_REPRESENTATION(#40,#49) ;
#62=VERTEX_POINT('',#61) ;
#64=VERTEX_POINT('',#63) ;
#71=VERTEX_POINT('',#70) ;
#108=VERTEX_POINT('',#107) ;
#132=VERTEX_POINT('',#131) ;
#139=VERTEX_POINT('',#138) ;
#158=VERTEX_POINT('',#157) ;
#165=VERTEX_POINT('',#164) ;
#255=VERTEX_POINT('',#254) ;
#262=VERTEX_POINT('',#261) ;
#286=VERTEX_POINT('',#285) ;
#288=VERTEX_POINT('',#287) ;
#295=VERTEX_POINT('',#294) ;
#347=VERTEX_POINT('',#346) ;
#383=VERTEX_POINT('',#382) ;
#390=VERTEX_POINT('',#389) ;
#440=VERTEX_POINT('',#439) ;
#442=VERTEX_POINT('',#441) ;
#473=VERTEX_POINT('',#472) ;
#475=VERTEX_POINT('',#474) ;
#570=VERTEX_POINT('',#569) ;
#572=VERTEX_POINT('',#571) ;
#627=VERTEX_POINT('',#626) ;
#634=VERTEX_POINT('',#633) ;
#658=VERTEX_POINT('',#657) ;
#660=VERTEX_POINT('',#659) ;
#713=VERTEX_POINT('',#712) ;
#720=VERTEX_POINT('',#719) ;
#41=(LENGTH_UNIT()NAMED_UNIT(*)SI_UNIT(.MILLI.,.METRE.)) ;
#42=(NAMED_UNIT(*)PLANE_ANGLE_UNIT()SI_UNIT($,.RADIAN.)) ;
#44=(NAMED_UNIT(*)SI_UNIT($,.STERADIAN.)SOLID_ANGLE_UNIT()) ;
#46=(GEOMETRIC_REPRESENTATION_CONTEXT(3)GLOBAL_UNCERTAINTY_ASSIGNED_CONTEXT((#45))GLOBAL_UNIT_ASSIGNED_CONTEXT((#41,#42,#44))REPRESENTATION_CONTEXT(' ',' ')) ;
ENDSEC;
END-ISO-10303-21;
